<?xml version="1.0" encoding="UTF-8" standalone="no"?>
<svg
   xmlns:dc="http://purl.org/dc/elements/1.1/"
   xmlns:cc="http://creativecommons.org/ns#"
   xmlns:rdf="http://www.w3.org/1999/02/22-rdf-syntax-ns#"
   xmlns:svg="http://www.w3.org/2000/svg"
   xmlns="http://www.w3.org/2000/svg"
   xmlns:sodipodi="http://sodipodi.sourceforge.net/DTD/sodipodi-0.dtd"
   xmlns:inkscape="http://www.inkscape.org/namespaces/inkscape"
   version="1.1"
   id="Layer_1"
   x="0px"
   y="0px"
   width="50"
   height="50"
   viewBox="0 0 50 50"
   enable-background="new 0 0 52 52"
   xml:space="preserve"
   sodipodi:docname="info.svg"
   inkscape:version="1.0.1 (3bc2e813f5, 2020-09-07)"><metadata
   id="metadata15"><rdf:RDF><cc:Work
       rdf:about=""><dc:format>image/svg+xml</dc:format><dc:type
         rdf:resource="http://purl.org/dc/dcmitype/StillImage" /><dc:title></dc:title></cc:Work></rdf:RDF></metadata><defs
   id="defs13" /><sodipodi:namedview
   pagecolor="#ffffff"
   bordercolor="#666666"
   borderopacity="1"
   objecttolerance="10"
   gridtolerance="10"
   guidetolerance="10"
   inkscape:pageopacity="0"
   inkscape:pageshadow="2"
   inkscape:window-width="1920"
   inkscape:window-height="1017"
   id="namedview11"
   showgrid="false"
   inkscape:zoom="7.9570071"
   inkscape:cx="56.969279"
   inkscape:cy="4.7862275"
   inkscape:window-x="-8"
   inkscape:window-y="-8"
   inkscape:window-maximized="1"
   inkscape:current-layer="Layer_1" />

<g
   id="g878"
   transform="translate(0,0.00111117)"
   style="fill:#808080"><g
     id="g8"
     style="fill:#808080"
     transform="matrix(0.68690298,0,0,0.67642868,7.104321,7.4470594)">
	<g
   id="g4"
   style="fill:#808080">
		<path
   fill="#FFFFFF"
   d="m 28.4,38 h -5 C 22.6,38 22,37.4 22,36.6 v -1.5 c 0,-4.2 2.7,-8 6.7,-9.4 1.2,-0.4 2.3,-1.1 3.2,-2.1 5,-6 0.4,-13.2 -5.6,-13.4 -2.2,-0.1 -4.3,0.7 -5.9,2.2 -1.3,1.2 -2.1,2.7 -2.3,4.4 -0.1,0.6 -0.7,1.1 -1.5,1.1 h -5 c -0.9,0 -1.6,-0.7 -1.5,-1.6 0.4,-3.8 2.1,-7.2 4.8,-9.9 3.2,-3 7.3,-4.6 11.7,-4.5 C 34.9,2.2 41.7,9 42,17.3 42.3,24.3 38,30.6 31.5,33 30.6,33.4 30,34.1 30,35 v 1.5 c 0,0.9 -0.8,1.5 -1.6,1.5 z"
   id="path2"
   style="fill:#808080" />
	</g>
	<path
   fill="#FFFFFF"
   d="m 30,48.5 c 0,0.8 -0.7,1.5 -1.5,1.5 h -5 C 22.7,50 22,49.3 22,48.5 v -5 C 22,42.7 22.7,42 23.5,42 h 5 c 0.8,0 1.5,0.7 1.5,1.5 z"
   id="path6"
   style="fill:#808080" />
</g><path
     id="path861"
     style="fill:#808080;stroke:none;stroke-width:4.93519;stroke-miterlimit:4;stroke-dasharray:none;stroke-opacity:1"
     d="M 24.999941,-0.00111117 A 25,24.999973 0 0 0 -5.9011163e-5,24.998889 a 25,24.999973 0 0 0 25.000000011163,25 25,24.999973 0 0 0 24.999999,-25 25,24.999973 0 0 0 -24.999999,-25.00000017 z m 0,4.46289057 A 20.538523,20.5385 0 0 1 45.539,24.998889 20.538523,20.5385 0 0 1 24.999941,45.537951 20.538523,20.5385 0 0 1 4.462831,24.998889 20.538523,20.5385 0 0 1 24.999941,4.4617794 Z" /></g></svg>
