<?xml version="1.0" encoding="UTF-8" standalone="no"?>
<svg
   xmlns:dc="http://purl.org/dc/elements/1.1/"
   xmlns:cc="http://creativecommons.org/ns#"
   xmlns:rdf="http://www.w3.org/1999/02/22-rdf-syntax-ns#"
   xmlns:svg="http://www.w3.org/2000/svg"
   xmlns="http://www.w3.org/2000/svg"
   xmlns:sodipodi="http://sodipodi.sourceforge.net/DTD/sodipodi-0.dtd"
   xmlns:inkscape="http://www.inkscape.org/namespaces/inkscape"
   version="1.1"
   id="Layer_1"
   x="0px"
   y="0px"
   viewBox="0 0 211 308"
   xml:space="preserve"
   sodipodi:docname="Inst-splitter-logo.svg"
   width="211"
   height="308"
   inkscape:version="1.0.1 (3bc2e813f5, 2020-09-07)"><metadata
   id="metadata893"><rdf:RDF><cc:Work
       rdf:about=""><dc:format>image/svg+xml</dc:format><dc:type
         rdf:resource="http://purl.org/dc/dcmitype/StillImage" /><dc:title></dc:title></cc:Work></rdf:RDF></metadata><defs
   id="defs891" /><sodipodi:namedview
   pagecolor="#ffffff"
   bordercolor="#666666"
   borderopacity="1"
   objecttolerance="10"
   gridtolerance="10"
   guidetolerance="10"
   inkscape:pageopacity="0"
   inkscape:pageshadow="2"
   inkscape:window-width="1920"
   inkscape:window-height="1017"
   id="namedview889"
   showgrid="false"
   inkscape:zoom="1.7240182"
   inkscape:cx="240"
   inkscape:cy="170.39517"
   inkscape:window-x="-8"
   inkscape:window-y="-8"
   inkscape:window-maximized="1"
   inkscape:current-layer="Layer_1" />
<style
   type="text/css"
   id="style864">
	.st0{fill:#FFFFFF;}
	.st1{fill:#FFFFFF;stroke:#000000;stroke-width:10;stroke-miterlimit:10;}
</style>




<g
   id="g906"
   transform="translate(-137,-76.978834)"><g
     id="g870">
	<path
   class="st0"
   d="m 186.95,376.5 c -23.41,0 -42.45,-19.04 -42.45,-42.45 v -106.1 c 0,-23.41 19.04,-42.45 42.45,-42.45 h 106.1 c 23.41,0 42.45,19.04 42.45,42.45 v 106.1 c 0,23.41 -19.04,42.45 -42.45,42.45 z"
   id="path866" />
	<path
   d="m 293.05,193 c 19.27,0 34.95,15.68 34.95,34.95 v 106.1 C 328,353.32 312.32,369 293.05,369 H 186.95 C 167.68,369 152,353.32 152,334.05 V 227.95 C 152,208.68 167.68,193 186.95,193 h 106.1 m 0,-15 H 186.95 C 159.36,178 137,200.36 137,227.95 v 106.1 c 0,27.59 22.36,49.95 49.95,49.95 h 106.1 C 320.64,384 343,361.64 343,334.05 V 227.95 C 343,200.36 320.64,178 293.05,178 Z"
   id="path868" />
</g><g
     id="g876">
	
		<circle
   transform="matrix(0.7071,-0.7071,0.7071,0.7071,-128.4027,252.0087)"
   class="st0"
   cx="240"
   cy="281"
   id="ellipse872"
   r="42.450001" />
	<path
   d="m 240,246.05 c 19.27,0 34.95,15.68 34.95,34.95 0,19.27 -15.68,34.95 -34.95,34.95 -19.27,0 -34.95,-15.68 -34.95,-34.95 0,-19.27 15.68,-34.95 34.95,-34.95 m 0,-15 v 0 c -27.59,0 -49.95,22.36 -49.95,49.95 v 0 c 0,27.59 22.36,49.95 49.95,49.95 v 0 c 27.59,0 49.95,-22.36 49.95,-49.95 v 0 c 0,-27.59 -22.36,-49.95 -49.95,-49.95 z"
   id="path874" />
</g><g
     id="g882">
	<path
   class="st0"
   d="m 288.77,227.5 c -3.16,0 -5.73,-2.57 -5.73,-5.73 0,-3.24 2.57,-5.81 5.73,-5.81 3.16,0 5.73,2.57 5.73,5.73 0,3.24 -2.57,5.81 -5.73,5.81 z"
   id="path878" />
	<path
   d="m 288.77,208.46 v 0 c -7.31,0 -13.23,5.92 -13.23,13.23 v 0.08 c 0,7.31 5.92,13.23 13.23,13.23 v 0 c 7.31,0 13.23,-5.92 13.23,-13.23 v -0.08 c 0,-7.31 -5.92,-13.23 -13.23,-13.23 z"
   id="path880" />
</g><path
     class="st1"
     d="M 342.56,149.3 C 331.25,142.22 151.67,79.16 147.84,82.08 c -3.83,2.92 -5.61,12.33 -5.22,15.12 0.39,2.79 42.9,10.58 45.37,15.66 2.48,5.09 -8.11,14.01 -5.55,16.07 2.56,2.06 67.12,19.84 72.82,21.96 25.74,8.11 91.89,12.69 87.3,-1.59 z"
     id="path884" /><rect
     x="191.42999"
     y="98.18"
     transform="matrix(0.9224,0.3861,-0.3861,0.9224,55.531,-66.0145)"
     class="st1"
     width="1.34"
     height="14.11"
     id="rect886" /></g>
</svg>
